<svg width="45" height="46" viewBox="0 0 45 46" fill="none" xmlns="http://www.w3.org/2000/svg">
<path d="M15.0357 13.817C15.0357 13.3273 15.2323 12.8577 15.5823 12.5115C15.9322 12.1653 16.4069 11.9708 16.9018 11.9708H31.8301C32.325 11.9708 32.7996 12.1653 33.1496 12.5115C33.4995 12.8577 33.6961 13.3273 33.6961 13.817V28.5865C33.6961 29.0761 33.4995 29.5457 33.1496 29.8919C32.7996 30.2381 32.325 30.4326 31.8301 30.4326C31.3352 30.4326 30.8606 30.2381 30.5106 29.8919C30.1607 29.5457 29.9641 29.0761 29.9641 28.5865V18.2736L14.489 33.5841C14.1371 33.9204 13.6657 34.1065 13.1764 34.1023C12.6872 34.0981 12.2191 33.9039 11.8731 33.5616C11.5272 33.2193 11.3309 32.7562 11.3267 32.2722C11.3224 31.7881 11.5105 31.3218 11.8504 30.9736L27.3255 15.6631H16.9018C16.4069 15.6631 15.9322 15.4686 15.5823 15.1224C15.2323 14.7762 15.0357 14.3066 15.0357 13.817Z" fill="white"/>
</svg>
