<svg width="863" height="136" viewBox="0 0 863 136" fill="none" xmlns="http://www.w3.org/2000/svg">
<path d="M860.397 60.0215C857.282 55.3917 851.775 51.3105 844.084 47.3617C830.626 40.488 810.36 34.1924 784.397 28.5288C706.549 11.5675 577.549 0.504899 431.498 0.5C312.809 0.5 205.362 7.80979 127.505 19.6514C88.5702 25.5746 57.0436 32.6197 35.114 40.4978C24.1447 44.4466 15.5759 48.5865 9.59705 53.0204C6.60986 55.2447 4.25806 57.5424 2.60341 60.0215C0.948753 62.4858 -0.00433612 65.1952 7.62884e-05 68.0024C7.62884e-05 70.8097 0.953165 73.5142 2.60341 75.9785C5.71856 80.6083 11.2252 84.6894 18.9161 88.6382C32.3739 95.5119 52.64 101.808 78.6026 107.471C156.451 124.433 285.452 135.495 431.502 135.5C550.192 135.5 657.638 128.185 735.495 116.349C774.43 110.425 805.957 103.38 827.886 95.5021C838.855 91.5533 847.424 87.4134 853.403 82.9795C856.39 80.7552 858.742 78.4576 860.397 75.9785C862.051 73.5142 863.005 70.8048 863 68.0024C863 65.1952 862.047 62.4858 860.397 60.0215ZM371.273 7.86365C359.262 10.9943 348.315 15.0362 338.784 19.8228C326.853 25.8195 317.128 32.9823 310.302 41.0809C303.485 49.1647 299.554 58.3018 299.558 67.9975C299.558 77.6883 303.485 86.8255 310.302 94.9142C320.544 107.06 337.297 117.123 358.256 124.246C362.439 125.667 366.803 126.961 371.304 128.136C340.192 124.952 312.376 119.376 289.957 112.086C271.906 106.222 257.349 99.2354 247.457 91.6268C242.51 87.825 238.733 83.8762 236.24 79.9127C233.743 75.9393 232.516 71.9954 232.512 68.0024C232.512 64.0046 233.743 60.0656 236.24 56.0873C240.595 49.1352 248.913 42.2762 260.491 36.0982C277.854 26.8043 302.47 18.9703 331.8 13.488C344.176 11.1756 357.4 9.27954 371.273 7.85875V7.86365ZM288.849 19.7199C270.533 25.6774 255.659 32.7618 245.215 40.782C239.995 44.7945 235.874 49.0519 233.015 53.5887C230.16 58.1156 228.576 62.9807 228.576 68.0024C228.576 73.0242 230.155 77.8892 233.015 82.4161C238.027 90.3481 246.865 97.4471 258.783 103.836C276.243 113.174 300.397 120.91 329.068 126.422C294.616 123.115 263.659 118.191 237.873 112.052C213.146 106.173 193.171 99.157 179.541 91.4798C172.724 87.6486 167.508 83.6459 164.084 79.6579C160.651 75.6503 159.054 71.7945 159.054 68.0024C159.054 64.2104 160.651 60.3546 164.084 56.347C170.072 49.3508 181.575 42.4036 197.468 36.1913C221.317 26.8434 255.024 18.9948 295.15 13.5076C306.014 12.0183 317.358 10.7052 329.099 9.5784C314.401 12.4004 300.882 15.8103 288.849 19.7199ZM340.404 112.199C328.812 106.379 319.507 99.4607 313.175 91.9354C306.834 84.3905 303.494 76.3459 303.49 68.0024C303.49 59.659 306.834 51.6094 313.175 44.0694C322.666 32.7716 338.877 22.8898 359.404 15.9279C373.62 11.1021 389.902 7.65785 407.45 5.99209C385.838 16.3394 370.708 40.2039 370.708 67.9975C370.708 95.7863 385.834 119.651 407.446 130.003C381.452 127.539 358.239 121.165 340.404 112.194V112.199ZM237.048 19.6807C212.113 25.6186 191.9 32.6785 177.763 40.6301C170.694 44.6132 165.13 48.8169 161.238 53.3291C157.36 57.8266 155.118 62.77 155.118 68.0024C155.118 73.23 157.36 78.1783 161.238 82.6758C168.047 90.5588 179.969 97.5745 196.158 103.934C217.77 112.395 247.015 119.563 281.617 124.932C244.738 121.704 211.385 117.324 182.921 112.037C151.156 106.143 125.471 99.1179 107.883 91.3966C99.0894 87.5457 92.3296 83.5038 87.8951 79.4766C85.6757 77.4678 84.0475 75.464 82.9974 73.5484C81.9472 71.6229 81.4707 69.8103 81.4663 68.0074C81.4663 66.1995 81.9472 64.3867 82.9974 62.4613C84.9521 58.8603 89.0071 54.9996 95.0256 51.2566C105.554 44.6817 121.968 38.4058 143.068 32.801C177.979 23.5119 225.739 15.9768 281.578 11.0873C265.499 13.581 250.576 16.4667 237.043 19.6856L237.048 19.6807ZM391.296 112.645C381.002 101.215 374.644 85.4439 374.644 68.0024C374.644 50.561 381.007 34.7901 391.296 23.3601C401.591 11.9349 415.794 4.87013 431.502 4.87013C447.21 4.87013 461.41 11.9349 471.708 23.3601C482.002 34.7901 488.361 50.561 488.361 68.0024C488.361 85.4439 481.998 101.21 471.708 112.645C461.414 124.075 447.21 131.135 431.502 131.135C415.794 131.135 401.591 124.07 391.296 112.645ZM492.296 68.0024C492.296 40.2088 477.171 16.3492 455.563 5.99699C481.557 8.46133 504.77 14.8354 522.601 23.806C534.192 29.6263 543.498 36.5392 549.83 44.0694C556.166 51.6143 559.511 59.659 559.515 68.0024C559.515 76.3459 556.17 84.3905 549.83 91.9354C540.339 103.233 524.132 113.115 503.601 120.077C489.384 124.903 473.102 128.347 455.554 130.013C477.166 119.665 492.296 95.801 492.296 68.0074V68.0024ZM563.446 68.0024C563.446 58.3068 559.519 49.1745 552.702 41.0858C542.461 28.9404 525.707 18.8772 504.748 11.7537C500.565 10.3329 496.206 9.03948 491.705 7.86365C522.813 11.0433 550.628 16.6236 573.048 23.9137C591.099 29.7782 605.655 36.7646 615.548 44.3732C620.494 48.175 624.271 52.1238 626.764 56.0873C629.262 60.0607 630.488 64.0046 630.493 68.0024C630.493 71.9954 629.262 75.9393 626.764 79.9127C622.409 86.8599 614.092 93.7188 602.514 99.9017C585.151 109.196 560.534 117.03 531.205 122.512C518.828 124.824 505.604 126.72 491.732 128.141C503.742 125.011 514.694 120.964 524.225 116.177C536.156 110.18 545.881 103.018 552.707 94.9191C559.524 86.8353 563.455 77.6981 563.451 68.0024H563.446ZM574.155 116.285C592.471 110.327 607.345 103.243 617.79 95.2229C623.01 91.2104 627.131 86.9578 629.99 82.4161C632.845 77.8892 634.429 73.0242 634.429 68.0024C634.429 62.9807 632.849 58.1156 629.99 53.5887C624.977 45.6567 616.139 38.5527 604.221 32.169C586.762 22.8358 562.608 15.095 533.936 9.58331C568.384 12.8903 599.346 17.814 625.132 23.9528C649.859 29.832 669.829 36.8478 683.464 44.525C690.281 48.3562 695.496 52.359 698.92 56.347C702.353 60.3546 703.951 64.2153 703.951 68.0024C703.951 71.7945 702.353 75.6503 698.92 79.6579C692.933 86.6541 681.43 93.6012 665.536 99.8135C641.687 109.161 607.981 117.01 567.854 122.497C556.987 123.987 545.647 125.3 533.905 126.426C548.603 123.605 562.127 120.195 574.155 116.285ZM625.957 116.324C650.891 110.386 671.105 103.326 685.242 95.3747C692.311 91.3916 697.875 87.1881 701.766 82.6758C705.645 78.1783 707.886 73.2349 707.886 68.0024C707.886 62.7749 705.645 57.8266 701.766 53.3291C694.958 45.4461 683.036 38.4303 666.847 32.071C645.235 23.6099 615.989 16.4423 581.392 11.0776C618.271 14.3062 651.624 18.6861 680.084 23.9676C711.849 29.8565 737.533 36.8871 755.121 44.6083C763.911 48.4592 770.675 52.501 775.109 56.5282C777.329 58.5369 778.957 60.5359 780.007 62.4564C781.057 64.3818 781.534 66.1946 781.538 68.0024C781.538 69.8103 781.057 71.6231 780.007 73.5436C778.052 77.1446 773.997 81.0051 767.979 84.7482C757.451 91.323 741.037 97.5941 719.937 103.204C685.021 112.493 637.266 120.028 581.422 124.917C597.501 122.424 612.428 119.538 625.961 116.319L625.957 116.324ZM128.044 112.023C89.2498 106.124 57.8732 99.0933 36.3318 91.3475C25.5655 87.482 17.257 83.4205 11.79 79.3492C9.05431 77.3209 7.0423 75.2926 5.76712 73.377C4.48752 71.4515 3.94037 69.7025 3.93596 67.9975C3.93596 66.2926 4.48752 64.5485 5.76712 62.6181C8.14982 59.0123 13.1711 55.0879 20.5663 51.3252C33.5035 44.7063 53.5799 38.4254 79.366 32.8108C117.017 24.6045 166.859 17.7651 224.909 12.9099C209.752 14.948 195.496 17.2065 182.281 19.6562C150.348 25.5843 124.478 32.6344 106.445 40.5419C97.4259 44.5054 90.3573 48.6649 85.411 53.1429C82.9401 55.3818 80.9942 57.714 79.6396 60.1881C78.2849 62.6573 77.5348 65.298 77.5348 68.0024C77.5348 70.702 78.2849 73.3476 79.6396 75.8168C82.1899 80.4466 86.7656 84.5963 93.1062 88.5648C104.208 95.4777 120.856 101.788 142.159 107.461C164.87 113.497 192.871 118.788 224.909 123.095C189.213 120.106 156.614 116.373 128.048 112.027L128.044 112.023ZM857.242 73.377C854.859 76.9828 849.838 80.9072 842.443 84.6699C829.506 91.2888 809.429 97.5697 783.643 103.184C745.992 111.396 696.149 118.23 638.1 123.085C653.256 121.047 667.513 118.788 680.733 116.339C712.665 110.411 738.535 103.361 756.568 95.4532C765.587 91.4897 772.656 87.3302 777.602 82.8522C780.073 80.6133 782.019 78.2811 783.374 75.8119C784.728 73.3426 785.479 70.702 785.479 67.9975C785.479 65.2931 784.728 62.6524 783.374 60.1832C780.823 55.5485 776.248 51.4037 769.907 47.4352C758.806 40.5174 742.158 34.212 720.854 28.5386C698.144 22.5027 670.143 17.2164 638.109 12.905C673.805 15.8936 706.404 19.6268 734.97 23.9676C773.764 29.8663 805.14 36.8968 826.682 44.6425C837.448 48.5081 845.756 52.5697 851.223 56.641C853.959 58.6693 855.971 60.6976 857.246 62.6132C858.526 64.5387 859.073 66.2877 859.077 67.9926C859.077 69.6927 858.526 71.4417 857.246 73.3721L857.242 73.377Z" fill="white"/>
</svg>
