<svg width="49" height="49" viewBox="0 0 49 49" fill="none" xmlns="http://www.w3.org/2000/svg">
<g clip-path="url(#clip0_202_80)">
<path d="M24.8085 18.9195C23.2172 18.9195 21.691 19.5517 20.5658 20.6769C19.4406 21.8021 18.8085 23.3282 18.8085 24.9195C18.8085 26.5108 19.4406 28.0369 20.5658 29.1622C21.691 30.2874 23.2172 30.9195 24.8085 30.9195C26.3998 30.9195 27.9259 30.2874 29.0511 29.1622C30.1763 28.0369 30.8085 26.5108 30.8085 24.9195C30.8085 23.3282 30.1763 21.8021 29.0511 20.6769C27.9259 19.5517 26.3998 18.9195 24.8085 18.9195ZM24.8085 14.9195C27.4606 14.9195 30.0042 15.9731 31.8795 17.8485C33.7549 19.7238 34.8085 22.2674 34.8085 24.9195C34.8085 27.5717 33.7549 30.1152 31.8795 31.9906C30.0042 33.866 27.4606 34.9195 24.8085 34.9195C22.1563 34.9195 19.6128 33.866 17.7374 31.9906C15.862 30.1152 14.8085 27.5717 14.8085 24.9195C14.8085 22.2674 15.862 19.7238 17.7374 17.8485C19.6128 15.9731 22.1563 14.9195 24.8085 14.9195ZM37.8085 14.4195C37.8085 15.0826 37.5451 15.7185 37.0762 16.1873C36.6074 16.6561 35.9715 16.9195 35.3085 16.9195C34.6454 16.9195 34.0095 16.6561 33.5407 16.1873C33.0719 15.7185 32.8085 15.0826 32.8085 14.4195C32.8085 13.7565 33.0719 13.1206 33.5407 12.6518C34.0095 12.1829 34.6454 11.9195 35.3085 11.9195C35.9715 11.9195 36.6074 12.1829 37.0762 12.6518C37.5451 13.1206 37.8085 13.7565 37.8085 14.4195ZM24.8085 8.91953C19.8605 8.91953 19.0525 8.93353 16.7505 9.03553C15.1825 9.10953 14.1305 9.31952 13.1545 9.69952C12.2865 10.0355 11.6605 10.4375 10.9945 11.1055C10.3685 11.7103 9.88718 12.4487 9.58647 13.2655C9.20647 14.2455 8.99647 15.2955 8.92447 16.8615C8.82047 19.0695 8.80847 19.8415 8.80847 24.9195C8.80847 29.8675 8.82247 30.6755 8.92447 32.9775C8.99847 34.5435 9.20847 35.5975 9.58647 36.5715C9.92647 37.4415 10.3265 38.0675 10.9905 38.7315C11.6645 39.4035 12.2905 39.8055 13.1505 40.1375C14.1385 40.5195 15.1905 40.7315 16.7505 40.8035C18.9585 40.9075 19.7305 40.9195 24.8085 40.9195C29.7565 40.9195 30.5645 40.9055 32.8665 40.8035C34.4305 40.7295 35.4845 40.5195 36.4605 40.1415C37.3265 39.8035 37.9565 39.4015 38.6205 38.7375C39.2945 38.0635 39.6965 37.4375 40.0285 36.5775C40.4085 35.5915 40.6205 34.5375 40.6925 32.9775C40.7965 30.7695 40.8085 29.9975 40.8085 24.9195C40.8085 19.9715 40.7945 19.1635 40.6925 16.8615C40.6185 15.2975 40.4085 14.2415 40.0285 13.2655C39.7271 12.4495 39.2466 11.7114 38.6225 11.1055C38.0179 10.4792 37.2795 9.99786 36.4625 9.69753C35.4825 9.31752 34.4305 9.10753 32.8665 9.03553C30.6585 8.93153 29.8865 8.91953 24.8085 8.91953ZM24.8085 4.91953C30.2425 4.91953 30.9205 4.93953 33.0525 5.03953C35.1825 5.13953 36.6325 5.47353 37.9085 5.96953C39.2285 6.47753 40.3405 7.16552 41.4525 8.27553C42.4695 9.27532 43.2564 10.4847 43.7585 11.8195C44.2525 13.0935 44.5885 14.5455 44.6885 16.6755C44.7825 18.8075 44.8085 19.4855 44.8085 24.9195C44.8085 30.3535 44.7885 31.0315 44.6885 33.1635C44.5885 35.2935 44.2525 36.7435 43.7585 38.0195C43.2578 39.3551 42.4707 40.5648 41.4525 41.5635C40.4524 42.5802 39.2431 43.367 37.9085 43.8695C36.6345 44.3635 35.1825 44.6995 33.0525 44.7995C30.9205 44.8935 30.2425 44.9195 24.8085 44.9195C19.3745 44.9195 18.6965 44.8995 16.5645 44.7995C14.4345 44.6995 12.9845 44.3635 11.7085 43.8695C10.3731 43.3685 9.16353 42.5814 8.16447 41.5635C7.14728 40.5639 6.36033 39.3545 5.85847 38.0195C5.36247 36.7455 5.02847 35.2935 4.92847 33.1635C4.83447 31.0315 4.80847 30.3535 4.80847 24.9195C4.80847 19.4855 4.82847 18.8075 4.92847 16.6755C5.02847 14.5435 5.36247 13.0955 5.85847 11.8195C6.35894 10.4839 7.14608 9.27417 8.16447 8.27553C9.16381 7.25799 10.3733 6.47098 11.7085 5.96953C12.9845 5.47353 14.4325 5.13953 16.5645 5.03953C18.6965 4.94553 19.3745 4.91953 24.8085 4.91953Z" fill="white"/>
</g>
<defs>
<clipPath id="clip0_202_80">
<rect width="48" height="48" fill="white" transform="translate(0.808472 0.919525)"/>
</clipPath>
</defs>
</svg>
