<svg width="49" height="49" viewBox="0 0 49 49" fill="none" xmlns="http://www.w3.org/2000/svg">
<g clip-path="url(#clip0_202_84)">
<path d="M14.3549 10.0248C14.3543 11.0857 13.9324 12.1029 13.1819 12.8526C12.4314 13.6024 11.4137 14.0233 10.3529 14.0228C9.29199 14.0223 8.27479 13.6003 7.52502 12.8498C6.77525 12.0993 6.35433 11.0817 6.35486 10.0208C6.35539 8.95993 6.77733 7.94273 7.52785 7.19296C8.27837 6.44319 9.29599 6.02227 10.3569 6.0228C11.4177 6.02333 12.4349 6.44526 13.1847 7.19578C13.9345 7.9463 14.3554 8.96393 14.3549 10.0248ZM14.4749 16.9848H6.47486V42.0248H14.4749V16.9848ZM27.1149 16.9848H19.1549V42.0248H27.0349V28.8848C27.0349 21.5648 36.5749 20.8848 36.5749 28.8848V42.0248H44.4749V26.1648C44.4749 13.8248 30.3549 14.2848 27.0349 20.3448L27.1149 16.9848Z" fill="white"/>
</g>
<defs>
<clipPath id="clip0_202_84">
<rect width="48" height="48" fill="white" transform="translate(0.474854 0.0247955)"/>
</clipPath>
</defs>
</svg>
