<svg width="49" height="49" viewBox="0 0 49 49" fill="none" xmlns="http://www.w3.org/2000/svg">
<g clip-path="url(#clip0_202_92)">
<path d="M45.2668 24.5362C45.2668 36.0233 35.9558 45.3362 24.4668 45.3362V48.5362C37.7231 48.5362 48.4668 37.7903 48.4668 24.5362H45.2668ZM24.4668 45.3362C12.978 45.3362 3.6668 36.0233 3.6668 24.5362H0.466797C0.466797 37.7903 11.2104 48.5362 24.4668 48.5362V45.3362ZM3.6668 24.5362C3.6668 13.0492 12.978 3.73624 24.4668 3.73624V0.53624C11.2104 0.53624 0.466797 11.282 0.466797 24.5362H3.6668ZM24.4668 3.73624C35.9558 3.73624 45.2668 13.0492 45.2668 24.5362H48.4668C48.4668 11.282 37.7231 0.53624 24.4668 0.53624V3.73624ZM12.1849 32.9081C15.3412 32.1387 19.2234 31.8025 23.0401 32.1776C26.8671 32.5535 30.5091 33.6319 33.2857 35.5842L35.1263 32.9666C31.7554 30.5965 27.5253 29.4028 23.353 28.9929C19.1705 28.5819 14.9264 28.9461 11.427 29.7992L12.1849 32.9081ZM11.1108 26.1118C22.1372 24.161 29.8247 25.159 36.1945 29.7317L38.0607 27.1322C30.7063 21.8528 22.0086 20.9341 10.5533 22.9608L11.1108 26.1118ZM10.3911 19.2275C14.7207 17.6978 20.0009 17.0626 25.1884 17.4875C30.3815 17.9128 35.3602 19.3897 39.1503 21.9642L40.9484 19.3171C36.583 16.352 31.0308 14.7552 25.4496 14.2981C19.8626 13.8406 14.1249 14.5144 9.32507 16.2103L10.3911 19.2275Z" fill="white"/>
</g>
<defs>
<clipPath id="clip0_202_92">
<rect width="48" height="48" fill="white" transform="translate(0.466797 0.53624)"/>
</clipPath>
</defs>
</svg>
