<svg width="54" height="54" viewBox="0 0 54 54" fill="none" xmlns="http://www.w3.org/2000/svg">
<path d="M27.0206 2.24791e-05C30.5442 -0.0300086 34.039 0.638618 37.3042 1.9675C40.5694 3.29639 43.5409 5.25935 46.0478 7.74365C48.5547 10.2279 50.5477 13.1846 51.9124 16.4439C53.2771 19.7032 53.9865 23.2008 54 26.736C53.9918 33.9625 51.1275 40.8909 46.0351 46.0018C40.9427 51.1128 34.0379 53.9891 26.8349 54C19.7178 54 12.8923 51.1636 7.85975 46.1147C2.82724 41.0657 0 34.2179 0 27.0777C0 11.6388 11.5596 2.24791e-05 27.0206 2.24791e-05Z" fill="black"/>
<path d="M51.8739 25.5866C51.5319 19.3442 48.9682 13.4322 44.6491 8.92579C43.008 7.13442 41.9037 7.22761 40.9954 9.54707C38.6194 15.6601 35.3041 21.3621 31.1697 26.446C29.2603 28.7965 30.2924 29.656 32.7385 30.1634C37.8095 31.1663 43.0402 31.0141 48.0447 29.7181C50.8624 28.9933 52.2867 27.5747 51.8739 25.5866Z" fill="white"/>
<path d="M23.2947 28.2581C17.3394 33.073 14.7179 39.2031 13.3555 46.0579C13.0768 47.4765 13.7683 48.2427 14.8211 49.0297C19.4243 52.4985 29.7867 52.9956 35.2982 49.8374C29.1777 43.9869 25.4828 36.7697 23.2947 28.2581Z" fill="white"/>
<path d="M51.5333 30.8261C43.5344 33.0938 36.2787 33.4872 29.0229 31.2299C26.6078 30.474 26.2466 31.4681 26.9587 33.539C28.8038 38.7448 31.7389 43.4937 35.5665 47.4662C37.5378 49.5371 39.0447 49.5371 41.2225 47.8596C46.6823 43.7177 50.0677 38.4058 51.5333 30.8261Z" fill="white"/>
<path d="M23.4289 25.1206C18.7225 22.8736 6.81193 22.7804 3.38533 24.5821C2.85989 24.8577 2.42018 25.273 2.11434 25.7826C1.8085 26.2921 1.64833 26.8763 1.65138 27.4711C0.949548 33.3837 5.61469 42.3405 11.3532 45.6851C12.9158 37.6465 17.1779 30.3882 23.4289 25.1206Z" fill="white"/>
<path d="M26.7007 20.813C24.492 14.9108 21.4163 9.42279 16.3796 5.2809C15.2236 4.31791 14.109 5.21877 13.1078 5.86076C8.30595 8.93565 4.72207 13.593 2.97248 19.032C2.36354 20.7923 2.10551 22.6562 5.09863 22.0349C11.484 20.6202 18.1198 20.8195 24.4094 22.6147C25.7305 22.9979 26.8349 22.7804 26.7007 20.813Z" fill="white"/>
<path d="M30.0963 25.1827C32.2637 21.8382 33.9254 19.643 35.1846 17.2407C37.1559 13.4612 41.4805 8.85331 39.5298 5.74689C36.8463 1.48073 30.5608 1.50144 25.328 1.71889C23.9703 1.86509 22.6227 2.0933 21.2924 2.4023C18.6089 2.84756 18.0826 3.86232 20.0436 6.03682C24.7706 11.2142 27.867 17.2717 30.0963 25.1827Z" fill="white"/>
</svg>
