<svg width="23" height="23" viewBox="0 0 23 23" fill="none" xmlns="http://www.w3.org/2000/svg">
<g clip-path="url(#clip0_90_255)">
<path d="M3.92832 1.92334C3.92832 1.4337 4.12492 0.964112 4.47487 0.617885C4.82482 0.271657 5.29946 0.0771484 5.79436 0.0771484H20.7227C21.2176 0.0771484 21.6922 0.271657 22.0422 0.617885C22.3921 0.964112 22.5887 1.4337 22.5887 1.92334V16.6928C22.5887 17.1825 22.3921 17.6521 22.0422 17.9983C21.6922 18.3445 21.2176 18.539 20.7227 18.539C20.2278 18.539 19.7531 18.3445 19.4032 17.9983C19.0532 17.6521 18.8566 17.1825 18.8566 16.6928V6.38003L3.38157 21.6905C3.02964 22.0268 2.55827 22.2129 2.069 22.2086C1.57973 22.2044 1.11171 22.0103 0.765728 21.668C0.419749 21.3257 0.223499 20.8626 0.219248 20.3786C0.214996 19.8945 0.403083 19.4282 0.742997 19.08L16.2181 3.76952H5.79436C5.29946 3.76952 4.82482 3.57501 4.47487 3.22879C4.12492 2.88256 3.92832 2.41298 3.92832 1.92334Z" fill="white"/>
</g>
<defs>
<clipPath id="clip0_90_255">
<rect width="23" height="23" fill="white"/>
</clipPath>
</defs>
</svg>
