<svg width="49" height="48" viewBox="0 0 49 48" fill="none" xmlns="http://www.w3.org/2000/svg">
<g clip-path="url(#clip0_202_88)">
<path d="M39.7275 13.99C39.5755 13.394 39.1435 12.944 38.6495 12.806C37.7755 12.56 33.5155 12 24.5155 12C15.5155 12 11.2595 12.56 10.3775 12.806C9.8895 12.942 9.4575 13.392 9.3035 13.99C9.0855 14.838 8.5155 18.392 8.5155 24C8.5155 29.608 9.0855 33.16 9.3035 34.012C9.4555 34.606 9.8875 35.056 10.3795 35.192C11.2595 35.44 15.5155 36 24.5155 36C33.5155 36 37.7735 35.44 38.6535 35.194C39.1415 35.058 39.5735 34.608 39.7275 34.01C39.9455 33.162 40.5155 29.6 40.5155 24C40.5155 18.4 39.9455 14.84 39.7275 13.99ZM43.6015 12.996C44.5155 16.56 44.5155 24 44.5155 24C44.5155 24 44.5155 31.44 43.6015 35.004C43.0935 36.974 41.6075 38.524 39.7255 39.048C36.3075 40 24.5155 40 24.5155 40C24.5155 40 12.7295 40 9.3055 39.048C7.4155 38.516 5.9315 36.968 5.4295 35.004C4.5155 31.44 4.5155 24 4.5155 24C4.5155 24 4.5155 16.56 5.4295 12.996C5.9375 11.026 7.4235 9.47598 9.3055 8.95198C12.7295 7.99998 24.5155 7.99998 24.5155 7.99998C24.5155 7.99998 36.3075 7.99998 39.7255 8.95198C41.6155 9.48398 43.0995 11.032 43.6015 12.996ZM20.5155 31V17L32.5155 24L20.5155 31Z" fill="white"/>
</g>
<defs>
<clipPath id="clip0_202_88">
<rect width="48" height="48" fill="white" transform="translate(0.515503 -1.71661e-05)"/>
</clipPath>
</defs>
</svg>
